# xmcd
#
# Track frame offsets:
#	150
#	15304
#	29482
#	40986
#	53965
#	66082
#
# Disc length: 1032 seconds
# Revision: 0
# Processed by: cddbd v1.5.1PL0 Copyright (c) Steve Scherf et al.
# Submitted via: cdrLabel 7.0
#
DISCID=48040606
DTITLE=Audio CD
DYEAR=1900
DGENRE=
TTITLE0=He Stopped Loving Her Today
TTITLE1=Don't Do It Darlin'
TTITLE2=Ruby, Don't take Your Love To Town
TTITLE3=Saginaw, Michigan
TTITLE4=There Goes My Everything
TTITLE5=Apartment No. 9
EXTD=
EXTT0=
EXTT1=
EXTT2=
EXTT3=
EXTT4=
EXTT5=
PLAYORDER=
